<?xml version="1.0" standalone="no"?>
<!DOCTYPE svg PUBLIC "-//W3C//DTD SVG 20010904//EN"
 "http://www.w3.org/TR/2001/REC-SVG-20010904/DTD/svg10.dtd">
<svg version="1.0" xmlns="http://www.w3.org/2000/svg"
 width="260.000000pt" height="260.000000pt" viewBox="0 0 260.000000 260.000000"
 preserveAspectRatio="xMidYMid meet">
<metadata>
Created by potrace 1.14, written by Peter Selinger 2001-2017
</metadata>
<g transform="translate(0.000000,260.000000) scale(0.100000,-0.100000)"
fill="#000000" stroke="none">
<path d="M0 1300 l0 -1300 1300 0 1300 0 0 1300 0 1300 -1300 0 -1300 0 0
-1300z m943 893 c-23 -2 -64 -2 -90 0 -26 2 -7 3 42 3 50 0 71 -1 48 -3z
m-150 -10 c-7 -2 -19 -2 -25 0 -7 3 -2 5 12 5 14 0 19 -2 13 -5z m224 1 c-3
-3 -12 -4 -19 -1 -8 3 -5 6 6 6 11 1 17 -2 13 -5z m40 -10 c-3 -3 -12 -4 -19
-1 -8 3 -5 6 6 6 11 1 17 -2 13 -5z m-347 -14 c-8 -5 -19 -10 -25 -10 -5 0 -3
5 5 10 8 5 20 10 25 10 6 0 3 -5 -5 -10z m400 -5 c14 -8 21 -14 15 -14 -5 0
-21 6 -35 14 -14 8 -20 14 -15 14 6 0 21 -6 35 -14z m70 -41 c0 -2 -9 0 -20 6
-11 6 -20 13 -20 16 0 2 9 0 20 -6 11 -6 20 -13 20 -16z m-555 8 c-29 -24 -85
-62 -85 -58 0 7 80 66 89 66 3 0 1 -4 -4 -8z m620 -52 c10 -11 16 -20 13 -20
-3 0 -13 9 -23 20 -10 11 -16 20 -13 20 3 0 13 -9 23 -20z m-715 -13 c0 -2
-19 -21 -42 -42 l-43 -40 40 43 c36 39 45 47 45 39z m770 -32 c13 -14 21 -25
18 -25 -2 0 -15 11 -28 25 -13 14 -21 25 -18 25 2 0 15 -11 28 -25z m55 -65
c10 -11 16 -20 13 -20 -3 0 -13 9 -23 20 -10 11 -16 20 -13 20 3 0 13 -9 23
-20z m-905 7 c0 -2 -10 -12 -22 -23 l-23 -19 19 23 c18 21 26 27 26 19z m941
-54 c13 -16 12 -17 -3 -4 -10 7 -18 15 -18 17 0 8 8 3 21 -13z m-493 -389 c62
-41 82 -195 42 -323 -15 -46 -19 -78 -14 -108 l6 -43 -80 0 c-81 0 -81 0 -84
28 -3 24 -7 27 -34 25 -33 -3 -44 12 -44 65 0 12 -7 25 -15 27 -8 3 -22 7 -30
10 -12 3 -11 13 9 55 19 41 23 63 19 108 -9 108 62 190 156 178 25 -4 55 -13
69 -22z m190 -78 c3 -15 0 -18 -21 -12 -37 9 -43 -11 -8 -28 35 -19 47 -47 31
-76 -16 -31 -84 -25 -88 7 -3 20 0 22 27 17 39 -8 40 6 1 28 -32 18 -40 54
-18 76 19 19 72 11 76 -12z m62 -6 c0 -23 4 -30 20 -30 16 0 20 7 20 30 0 20
5 30 15 30 12 0 15 -16 15 -80 0 -64 -3 -80 -15 -80 -10 0 -15 10 -15 30 0 23
-4 30 -20 30 -16 0 -20 -7 -20 -30 0 -19 -5 -30 -14 -30 -11 0 -15 18 -18 73
-4 81 -3 87 18 87 9 0 14 -11 14 -30z m192 -35 c10 -33 18 -68 18 -77 0 -25
-26 -23 -33 2 -3 12 -14 20 -27 20 -13 0 -24 -8 -27 -20 -3 -11 -12 -20 -19
-20 -19 0 -18 50 1 86 8 16 15 36 15 45 0 22 11 30 34 27 15 -2 24 -18 38 -63z
m87 28 l20 -38 1 38 c0 26 4 37 15 37 12 0 15 -16 15 -80 0 -91 -14 -104 -45
-42 l-20 37 -3 -37 c-2 -25 -8 -38 -18 -38 -11 0 -14 17 -14 80 0 92 16 106
49 43z m171 17 c0 -14 -7 -20 -21 -20 -19 0 -20 -5 -18 -57 2 -48 0 -59 -14
-61 -14 -3 -17 6 -17 57 0 48 -3 61 -15 61 -8 0 -15 9 -15 20 0 17 7 20 50 20
43 0 50 -3 50 -20z m101 -50 c10 -36 18 -71 19 -77 0 -21 -28 -15 -35 7 -4 11
-15 20 -27 20 -11 0 -22 -8 -25 -20 -3 -11 -13 -20 -22 -20 -14 0 -17 7 -13
33 2 17 8 37 12 42 5 6 11 27 15 48 7 33 11 38 33 35 22 -3 28 -12 43 -68z
m87 33 l22 -38 0 38 c0 26 4 37 15 37 12 0 15 -16 15 -80 0 -92 -16 -106 -49
-42 l-20 37 -1 -37 c0 -26 -5 -38 -14 -38 -11 0 -15 19 -18 76 -2 42 -1 78 1
80 12 12 29 0 49 -33z m102 -9 c0 -25 5 -54 11 -65 18 -35 39 -5 39 57 0 41 4
54 15 54 12 0 15 -13 15 -61 0 -79 -11 -99 -56 -99 -42 0 -54 24 -54 106 0 41
4 54 15 54 11 0 15 -12 15 -46z m-793 -145 c20 -20 4 -39 -22 -29 -31 12 -47
-8 -43 -52 2 -25 8 -34 26 -36 15 -2 22 2 22 12 0 9 -4 16 -10 16 -5 0 -10 5
-10 10 0 6 12 10 26 10 23 0 25 -3 22 -37 -3 -36 -5 -38 -40 -41 -44 -4 -68
24 -68 80 0 60 62 102 97 67z m63 -41 c0 -60 11 -84 34 -75 12 5 16 21 16 67
0 47 3 60 15 60 21 0 21 -107 -1 -138 -17 -24 -53 -29 -72 -10 -15 15 -16 148
-2 148 6 0 10 -24 10 -52z m181 42 c13 -7 19 -21 19 -43 0 -39 -15 -57 -47
-57 -18 0 -23 -6 -23 -25 0 -14 -4 -25 -9 -25 -9 0 -20 148 -12 156 8 8 52 4
72 -6z m129 -5 c0 -8 -7 -15 -15 -15 -12 0 -15 -14 -15 -65 0 -51 -3 -65 -15
-65 -12 0 -15 14 -15 65 0 51 -3 65 -15 65 -8 0 -15 7 -15 15 0 11 12 15 45
15 33 0 45 -4 45 -15z m103 -47 c10 -35 21 -71 24 -80 3 -12 0 -18 -10 -18 -8
0 -17 9 -20 20 -3 14 -14 20 -32 20 -18 0 -29 -6 -32 -20 -3 -11 -9 -20 -14
-20 -14 0 -10 55 6 86 8 16 15 36 15 45 0 20 9 29 30 29 11 0 21 -19 33 -62z
m-173 -532 c0 -2 -8 -10 -17 -17 -16 -13 -17 -12 -4 4 13 16 21 21 21 13z
m-965 -46 c10 -11 16 -20 13 -20 -3 0 -13 9 -23 20 -10 11 -16 20 -13 20 3 0
13 -9 23 -20z m935 7 c0 -2 -10 -12 -22 -23 l-23 -19 19 23 c18 21 26 27 26
19z m-875 -77 c21 -22 37 -40 34 -40 -3 0 -23 18 -44 40 -21 22 -37 40 -34 40
3 0 23 -18 44 -40z m825 17 c0 -2 -12 -14 -27 -28 l-28 -24 24 28 c23 25 31
32 31 24z m-60 -50 c0 -2 -10 -12 -22 -23 l-23 -19 19 23 c18 21 26 27 26 19z
m-635 -70 c6 -6 -5 -1 -23 9 -18 10 -41 28 -50 38 -15 18 47 -23 73 -47z m555
8 c0 -2 -10 -9 -22 -15 -22 -11 -22 -10 -4 4 21 17 26 19 26 11z m-70 -40
c-14 -8 -29 -14 -35 -14 -5 0 1 6 15 14 14 8 30 14 35 14 6 0 -1 -6 -15 -14z
m-400 -5 c8 -5 11 -10 5 -10 -5 0 -17 5 -25 10 -8 5 -10 10 -5 10 6 0 17 -5
25 -10z m347 -16 c-3 -3 -12 -4 -19 -1 -8 3 -5 6 6 6 11 1 17 -2 13 -5z m-264
-11 c-7 -2 -19 -2 -25 0 -7 3 -2 5 12 5 14 0 19 -2 13 -5z m224 1 c-3 -3 -12
-4 -19 -1 -8 3 -5 6 6 6 11 1 17 -2 13 -5z m-74 -11 c-23 -2 -64 -2 -90 0 -26
2 -7 3 42 3 50 0 71 -1 48 -3z"/>
<path d="M815 1358 c-10 -40 -20 -76 -22 -81 -2 -4 -15 6 -29 23 -26 31 -24
51 10 80 9 7 16 16 16 21 0 19 -16 7 -44 -32 l-28 -40 23 -27 c59 -67 57 -67
69 -20 6 24 16 60 22 80 l11 36 23 -28 c30 -35 30 -34 -2 -76 -15 -19 -22 -34
-16 -34 5 0 22 16 37 36 l27 35 -27 39 c-48 69 -51 68 -70 -12z"/>
<path d="M1290 1400 c0 -11 5 -20 10 -20 6 0 10 9 10 20 0 11 -4 20 -10 20 -5
0 -10 -9 -10 -20z"/>
<path d="M1650 1408 c0 -16 5 -28 10 -28 13 0 13 20 0 40 -8 12 -10 9 -10 -12z"/>
<path d="M1290 1236 c0 -20 5 -26 21 -26 15 0 20 5 17 22 -5 34 -38 37 -38 4z"/>
<path d="M1526 1234 c-10 -25 -7 -34 9 -34 8 0 15 9 15 19 0 26 -16 35 -24 15z"/>
</g>
</svg>
